<?xml version="1.0" encoding="UTF-8" standalone="no"?>
<svg
   xmlns:dc="http://purl.org/dc/elements/1.1/"
   xmlns:cc="http://creativecommons.org/ns#"
   xmlns:rdf="http://www.w3.org/1999/02/22-rdf-syntax-ns#"
   xmlns:svg="http://www.w3.org/2000/svg"
   xmlns="http://www.w3.org/2000/svg"
   xmlns:sodipodi="http://sodipodi.sourceforge.net/DTD/sodipodi-0.dtd"
   xmlns:inkscape="http://www.inkscape.org/namespaces/inkscape"
   version="1.1"
   id="svg2"
   xml:space="preserve"
   width="639.84003"
   height="120.49333"
   viewBox="0 0 639.84003 120.49333"
   sodipodi:docname="logo.eps"><metadata
     id="metadata8"><rdf:RDF><cc:Work
         rdf:about=""><dc:format>image/svg+xml</dc:format><dc:type
           rdf:resource="http://purl.org/dc/dcmitype/StillImage" /></cc:Work></rdf:RDF></metadata><defs
     id="defs6" /><sodipodi:namedview
     pagecolor="#ffffff"
     bordercolor="#666666"
     borderopacity="1"
     objecttolerance="10"
     gridtolerance="10"
     guidetolerance="10"
     inkscape:pageopacity="0"
     inkscape:pageshadow="2"
     inkscape:window-width="640"
     inkscape:window-height="480"
     id="namedview4" /><g
     id="g10"
     inkscape:groupmode="layer"
     inkscape:label="ink_ext_XXXXXX"
     transform="matrix(1.3333333,0,0,-1.3333333,0,120.49333)"><g
       id="g12"
       transform="scale(0.1)"><path
         d="m 1554.97,583.906 c 6.04,3.574 10.76,8.574 14.2,14.981 3.41,6.406 5.13,13.633 5.13,21.668 0,8.195 -1.72,15.5 -5.13,21.914 -3.44,6.398 -8.16,11.398 -14.2,14.98 -6.04,3.574 -12.93,5.352 -20.67,5.352 -7.75,0 -14.64,-1.817 -20.68,-5.477 -6.03,-3.644 -10.76,-8.672 -14.19,-15.078 -3.43,-6.406 -5.14,-13.633 -5.14,-21.691 0,-8.035 1.71,-15.262 5.14,-21.668 3.43,-6.407 8.16,-11.407 14.19,-14.981 6.04,-3.566 12.93,-5.359 20.68,-5.359 7.74,0 14.63,1.793 20.67,5.359 z m 40.11,143.711 V 561.785 h -20.78 v 23.457 c -4.47,-7.89 -10.46,-13.965 -17.99,-18.199 -7.53,-4.25 -16.28,-6.379 -26.26,-6.379 -11.17,0 -21.05,2.578 -29.62,7.715 -8.56,5.137 -15.23,12.293 -20,21.457 -4.77,9.156 -7.15,19.629 -7.15,31.394 0,11.622 2.38,21.942 7.15,30.958 4.77,9.011 11.44,16.054 20,21.121 8.57,5.058 18.37,7.597 29.39,7.597 10.14,0 19,-2.09 26.61,-6.258 7.59,-4.171 13.55,-10.207 17.87,-18.105 v 71.074 h 20.78"
         style="fill:#2452a0;fill-opacity:1;fill-rule:nonzero;stroke:none"
         id="path14" /><path
         d="m 1674.21,673.867 c 7.15,4.395 15.64,6.668 25.48,6.817 v -20.11 c -12.07,0.449 -21.83,-2.683 -29.28,-9.394 -7.46,-6.7 -11.7,-15.711 -12.74,-27.039 v -62.356 h -20.79 V 680.02 h 20.79 v -25.481 c 3.87,8.488 9.39,14.934 16.54,19.328"
         style="fill:#2452a0;fill-opacity:1;fill-rule:nonzero;stroke:none"
         id="path16" /><path
         d="m 1879.16,668.508 c 7.9,-8.125 11.84,-19.336 11.84,-33.645 v -73.078 h -20.78 v 67.492 c 0,9.981 -2.79,17.774 -8.38,23.36 -5.59,5.593 -13.3,8.386 -23.13,8.386 -10.58,-0.156 -19.19,-3.554 -25.82,-10.175 -6.63,-6.629 -10.39,-15.235 -11.28,-25.809 v -63.254 h -20.79 V 680.02 h 20.79 v -25.04 c 7.89,16.836 22.87,25.403 44.92,25.704 13.85,0 24.73,-4.051 32.63,-12.176"
         style="fill:#2452a0;fill-opacity:1;fill-rule:nonzero;stroke:none"
         id="path18" /><path
         d="m 1939.61,581.902 c 2.31,-2.382 3.47,-5.437 3.47,-9.168 0,-3.73 -1.16,-6.816 -3.47,-9.277 -2.31,-2.449 -5.18,-3.684 -8.6,-3.684 -3.43,0 -6.34,1.235 -8.72,3.684 -2.39,2.461 -3.58,5.547 -3.58,9.277 0,3.731 1.19,6.786 3.58,9.168 2.38,2.383 5.29,3.575 8.72,3.575 3.42,0 6.29,-1.192 8.6,-3.575"
         style="fill:#2452a0;fill-opacity:1;fill-rule:nonzero;stroke:none"
         id="path20" /><path
         d="m 2217.53,668.398 c 7.75,-8.195 11.62,-19.375 11.62,-33.535 v -73.078 h -21.01 v 67.492 c 0,9.981 -2.72,17.813 -8.15,23.465 -5.44,5.664 -12.93,8.496 -22.47,8.496 -11.17,-0.3 -19.97,-4.246 -26.37,-11.843 -6.41,-7.598 -9.61,-17.352 -9.61,-29.278 v -58.332 h -21.01 v 67.492 c 0,9.981 -2.68,17.813 -8.05,23.465 -5.36,5.664 -12.89,8.496 -22.57,8.496 -11.18,-0.3 -20,-4.246 -26.48,-11.843 -6.49,-7.598 -9.72,-17.352 -9.72,-29.278 v -58.332 h -20.79 V 680.02 h 20.79 v -24.817 c 7.75,16.692 22.42,25.18 44.02,25.481 10.88,0 19.94,-2.598 27.16,-7.825 7.22,-5.214 12.1,-12.507 14.64,-21.894 7.3,19.512 22.64,29.418 46.04,29.719 13.56,0 24.21,-4.094 31.96,-12.286"
         style="fill:#2452a0;fill-opacity:1;fill-rule:nonzero;stroke:none"
         id="path22" /><path
         d="m 2350.51,628.84 c -0.6,10.719 -4.17,19.176 -10.73,25.359 -6.55,6.184 -15.2,9.278 -25.93,9.278 -10.43,0 -19.1,-3.125 -26.03,-9.387 -6.93,-6.258 -11.07,-14.676 -12.4,-25.25 z m 4.7,35.64 c 9.38,-10.8 14.07,-25.808 14.07,-45.027 0,-2.988 -0.07,-5.226 -0.22,-6.711 h -93.42 c 1.64,-10.574 6.07,-19.004 13.3,-25.262 7.22,-6.25 16.12,-9.386 26.7,-9.386 7.01,0 13.53,1.269 19.56,3.808 6.04,2.532 11.28,6.106 15.76,10.727 l 11.39,-11.848 c -5.81,-6.261 -12.81,-11.105 -21,-14.523 -8.2,-3.438 -17.29,-5.145 -27.27,-5.145 -11.62,0 -21.94,2.489 -30.95,7.489 -9.03,4.992 -16.03,12.023 -21.01,21.125 -5,9.082 -7.5,19.445 -7.5,31.066 0,11.617 2.5,21.93 7.5,30.953 4.98,9.016 11.96,16.086 20.9,21.231 8.94,5.136 19.14,7.707 30.62,7.707 18.32,0 32.17,-5.403 41.57,-16.204"
         style="fill:#2452a0;fill-opacity:1;fill-rule:nonzero;stroke:none"
         id="path24" /><path
         d="m 2467.74,583.906 c 6.03,3.574 10.75,8.574 14.19,14.981 3.42,6.406 5.14,13.633 5.14,21.668 0,8.195 -1.72,15.5 -5.14,21.914 -3.44,6.398 -8.16,11.398 -14.19,14.98 -6.05,3.574 -12.94,5.352 -20.67,5.352 -7.76,0 -14.64,-1.817 -20.69,-5.477 -6.02,-3.644 -10.75,-8.672 -14.18,-15.078 -3.43,-6.406 -5.14,-13.633 -5.14,-21.691 0,-8.035 1.71,-15.262 5.14,-21.668 3.43,-6.407 8.16,-11.407 14.18,-14.981 6.05,-3.566 12.93,-5.359 20.69,-5.359 7.73,0 14.62,1.793 20.67,5.359 z m 40.11,143.711 V 561.785 h -20.78 v 23.457 c -4.48,-7.89 -10.46,-13.965 -17.99,-18.199 -7.52,-4.25 -16.28,-6.379 -26.26,-6.379 -11.18,0 -21.05,2.578 -29.62,7.715 -8.57,5.137 -15.23,12.293 -20,21.457 -4.77,9.156 -7.16,19.629 -7.16,31.394 0,11.622 2.39,21.942 7.16,30.958 4.77,9.011 11.43,16.054 20,21.121 8.57,5.058 18.38,7.597 29.39,7.597 10.14,0 19.01,-2.09 26.6,-6.258 7.6,-4.171 13.56,-10.207 17.88,-18.105 v 71.074 h 20.78"
         style="fill:#2452a0;fill-opacity:1;fill-rule:nonzero;stroke:none"
         id="path26" /><path
         d="m 2561.17,581.902 c 2.3,-2.382 3.45,-5.437 3.45,-9.168 0,-3.73 -1.15,-6.816 -3.45,-9.277 -2.32,-2.449 -5.18,-3.684 -8.62,-3.684 -3.41,0 -6.32,1.235 -8.71,3.684 -2.38,2.461 -3.57,5.547 -3.57,9.277 0,3.731 1.19,6.786 3.57,9.168 2.39,2.383 5.3,3.575 8.71,3.575 3.44,0 6.3,-1.192 8.62,-3.575"
         style="fill:#2452a0;fill-opacity:1;fill-rule:nonzero;stroke:none"
         id="path28" /><path
         d="m 2751.81,579.383 c -12.3,-12.625 -29.39,-18.934 -51.3,-18.934 -13.18,0 -25.48,2.899 -36.87,8.711 -11.4,5.809 -21.35,14.082 -29.84,24.805 l 15.77,24.812 c 7.36,-8.718 15.46,-15.371 24.29,-19.949 8.83,-4.59 17.6,-6.863 26.31,-6.863 12.07,0 21.35,3.621 27.83,10.887 6.49,7.253 9.73,17.597 9.73,31.015 v 133.098 h -82.81 v 29.5 h 115.33 V 632.852 c 0,-23.016 -6.15,-40.84 -18.44,-53.469"
         style="fill:#2452a0;fill-opacity:1;fill-rule:nonzero;stroke:none"
         id="path30" /><path
         d="m 2918.59,596.816 c 10.17,7.039 16.27,16.368 18.28,27.989 v 17.773 h -51.97 c -14.08,0 -24.53,-2.129 -31.35,-6.367 -6.82,-4.246 -10.22,-10.957 -10.22,-20.117 0,-9.172 3.46,-16.426 10.4,-21.789 6.91,-5.371 16.19,-8.047 27.81,-8.047 14.53,0 26.87,3.515 37.05,10.558 z m 18.61,-35.031 v 24.805 c -13.2,-17.43 -33.87,-26.141 -62.03,-26.141 -12.28,0 -23.08,2.344 -32.35,7.039 -9.27,4.688 -16.42,11.164 -21.46,19.446 -5.02,8.261 -7.54,17.539 -7.54,27.824 0,15.855 5.87,28.433 17.6,37.711 11.74,9.269 28.11,14.023 49.12,14.25 h 56.33 v 8.379 c 0,12.519 -3.87,22.175 -11.58,29.004 -7.71,6.804 -18.94,10.222 -33.69,10.222 -17.87,0 -36.1,-6.363 -54.65,-19.109 l -13.07,21.457 c 12.74,8.258 24.52,14.246 35.37,17.926 10.84,3.691 23.75,5.539 38.72,5.539 22.13,0 39.23,-5.43 51.3,-16.258 12.06,-10.852 18.22,-25.981 18.43,-45.422 l 0.34,-116.672 h -30.84"
         style="fill:#2452a0;fill-opacity:1;fill-rule:nonzero;stroke:none"
         id="path32" /><path
         d="m 3147.73,561.785 -56.66,86.153 -34.53,-35.86 v -50.293 h -31.17 v 248.75 h 31.17 v -158.57 l 85.82,87.168 h 36.56 l -66.05,-68.723 72.41,-108.625 h -37.55"
         style="fill:#2452a0;fill-opacity:1;fill-rule:nonzero;stroke:none"
         id="path34" /><path
         d="M 3375.7,739.133 V 561.785 h -31.52 v 37.551 c -11.62,-25.266 -33.52,-38.106 -65.71,-38.566 -20.56,0 -36.65,6.093 -48.28,18.273 -11.62,12.187 -17.42,29.004 -17.42,50.469 v 109.621 h 31.5 v -101.25 c 0,-14.973 4.08,-26.653 12.25,-35.031 8.15,-8.379 19.38,-12.579 33.69,-12.579 16.53,0.235 29.67,6.094 39.38,17.61 9.72,11.5 14.59,26.199 14.59,44.082 v 87.168 h 31.52"
         style="fill:#2452a0;fill-opacity:1;fill-rule:nonzero;stroke:none"
         id="path36" /><path
         d="m 3559.57,595.977 c 9.05,5.371 16.1,12.851 21.13,22.461 5.03,9.609 7.54,20.457 7.54,32.527 0,11.836 -2.58,22.57 -7.72,32.18 -5.13,9.609 -12.19,17.097 -21.11,22.46 -8.95,5.36 -19.12,8.047 -30.51,8.047 -11.4,0 -21.63,-2.687 -30.68,-8.047 -9.05,-5.363 -16.15,-12.851 -21.29,-22.46 -5.14,-9.61 -7.72,-20.344 -7.72,-32.18 0,-12.293 2.58,-23.192 7.72,-32.684 5.14,-9.504 12.24,-16.933 21.29,-22.304 9.05,-5.364 19.28,-8.047 30.68,-8.047 11.39,0 21.62,2.683 30.67,8.047 z m 19.62,132.761 c 12.95,-7.605 23.01,-18.222 30.16,-31.855 7.16,-13.629 10.73,-29.278 10.73,-46.934 0,-17.429 -3.52,-32.906 -10.55,-46.426 -7.04,-13.523 -17,-24.031 -29.85,-31.519 -12.85,-7.484 -27.54,-11.234 -44.08,-11.234 -14.97,0 -28.16,3.136 -39.56,9.398 -11.4,6.25 -20.34,15.191 -26.83,26.824 v -35.207 h -31.17 v 248.75 h 31.17 V 703.926 c 6.49,11.621 15.37,20.566 26.66,26.816 11.29,6.262 24.32,9.395 39.07,9.395 16.53,0 31.29,-3.809 44.25,-11.399"
         style="fill:#2452a0;fill-opacity:1;fill-rule:nonzero;stroke:none"
         id="path38" /><path
         d="m 3889.96,677.285 c 10.72,8.817 16.09,21.836 16.09,39.043 0,16.777 -5.37,29.453 -16.09,38.055 -10.73,8.605 -26.16,12.914 -46.27,12.914 l -57,-0.332 V 664.043 h 57 c 20.11,0 35.54,4.402 46.27,13.242 z m 22.96,98.387 c 15.98,-13.856 23.97,-33.301 23.97,-58.328 0,-26.153 -8.04,-46.438 -24.14,-60.852 -16.08,-14.414 -38.66,-21.629 -67.72,-21.629 h -58.34 v -73.078 h -32.17 v 234.68 h 90.51 c 29.28,0 51.91,-6.934 67.89,-20.793"
         style="fill:#2452a0;fill-opacity:1;fill-rule:nonzero;stroke:none"
         id="path40" /><path
         d="m 4066.13,596.816 c 10.16,7.039 16.26,16.368 18.27,27.989 v 17.773 h -51.96 c -14.09,0 -24.53,-2.129 -31.35,-6.367 -6.82,-4.246 -10.23,-10.957 -10.23,-20.117 0,-9.172 3.47,-16.426 10.4,-21.789 6.92,-5.371 16.2,-8.047 27.82,-8.047 14.53,0 26.87,3.515 37.05,10.558 z m 18.61,-35.031 v 24.805 c -13.2,-17.43 -33.87,-26.141 -62.03,-26.141 -12.29,0 -23.09,2.344 -32.35,7.039 -9.28,4.688 -16.43,11.164 -21.46,19.446 -5.03,8.261 -7.54,17.539 -7.54,27.824 0,15.855 5.86,28.433 17.6,37.711 11.74,9.269 28.11,14.023 49.12,14.25 h 56.32 v 8.379 c 0,12.519 -3.86,22.175 -11.57,29.004 -7.72,6.804 -18.95,10.222 -33.69,10.222 -17.89,0 -36.1,-6.363 -54.65,-19.109 l -13.07,21.457 c 12.74,8.258 24.51,14.246 35.37,17.926 10.84,3.691 23.74,5.539 38.72,5.539 22.12,0 39.23,-5.43 51.29,-16.258 12.07,-10.852 18.21,-25.981 18.44,-45.422 l 0.33,-116.672 h -30.83"
         style="fill:#2452a0;fill-opacity:1;fill-rule:nonzero;stroke:none"
         id="path42" /><path
         d="m 4172.91,810.535 h 31.17 v -248.75 h -31.17 v 248.75"
         style="fill:#2452a0;fill-opacity:1;fill-rule:nonzero;stroke:none"
         id="path44" /><path
         d="m 4356.45,596.816 c 10.17,7.039 16.26,16.368 18.27,27.989 v 17.773 h -51.96 c -14.08,0 -24.53,-2.129 -31.35,-6.367 -6.83,-4.246 -10.22,-10.957 -10.22,-20.117 0,-9.172 3.46,-16.426 10.39,-21.789 6.92,-5.371 16.2,-8.047 27.82,-8.047 14.54,0 26.87,3.515 37.05,10.558 z m 18.6,-35.031 v 24.805 c -13.19,-17.43 -33.86,-26.141 -62.01,-26.141 -12.3,0 -23.08,2.344 -32.36,7.039 -9.28,4.688 -16.43,11.164 -21.46,19.446 -5.03,8.261 -7.54,17.539 -7.54,27.824 0,15.855 5.87,28.433 17.6,37.711 11.73,9.269 28.1,14.023 49.12,14.25 h 56.32 v 8.379 c 0,12.519 -3.86,22.175 -11.56,29.004 -7.72,6.804 -18.95,10.222 -33.7,10.222 -17.88,0 -36.1,-6.363 -54.64,-19.109 l -13.08,21.457 c 12.74,8.258 24.52,14.246 35.37,17.926 10.84,3.691 23.74,5.539 38.72,5.539 22.13,0 39.22,-5.43 51.29,-16.258 12.07,-10.852 18.23,-25.981 18.44,-45.422 l 0.33,-116.672 h -30.84"
         style="fill:#2452a0;fill-opacity:1;fill-rule:nonzero;stroke:none"
         id="path46" /><path
         d="m 4535.31,712.313 c -11.62,0 -21.97,-2.579 -31.02,-7.715 -9.05,-5.145 -16.15,-12.403 -21.29,-21.785 -5.14,-9.387 -7.71,-20.235 -7.71,-32.52 0,-12.297 2.52,-23.137 7.54,-32.52 5.04,-9.394 11.96,-16.71 20.8,-21.964 8.83,-5.254 18.93,-7.879 30.33,-7.879 11.41,0 21.68,1.906 30.85,5.703 9.16,3.797 16.76,9.277 22.78,16.426 l 17.78,-18.094 c -8.04,-10.063 -18.27,-17.777 -30.68,-23.137 -12.4,-5.371 -26.42,-8.058 -42.07,-8.058 -17.21,0 -32.52,3.808 -45.93,11.406 -13.4,7.597 -23.85,18.156 -31.34,31.679 -7.49,13.516 -11.23,28.997 -11.23,46.438 0,17.43 3.74,32.961 11.23,46.59 7.49,13.633 17.94,24.25 31.34,31.855 13.41,7.59 28.72,11.399 45.93,11.399 14.97,0 28.44,-2.297 40.4,-6.875 11.96,-4.582 21.96,-11.231 30,-19.942 l -17.1,-21.465 c -14.07,13.633 -30.94,20.458 -50.61,20.458"
         style="fill:#2452a0;fill-opacity:1;fill-rule:nonzero;stroke:none"
         id="path48" /><path
         d="m 4638.89,739.133 142.48,-0.336 v -22.125 l -107.27,-129.067 109.96,-0.339 v -25.821 l -148.19,0.34 v 22.121 l 106.95,129.082 -103.93,0.332 v 25.813"
         style="fill:#2452a0;fill-opacity:1;fill-rule:nonzero;stroke:none"
         id="path50" /><path
         d="m 1433.88,356.277 c -12.72,5.625 -25.78,8.45 -39.21,8.45 -17.75,0 -34.05,-4.317 -48.91,-12.95 -14.88,-8.632 -26.62,-20.312 -35.25,-35.058 -8.63,-14.746 -12.94,-30.996 -12.94,-48.742 0,-17.508 4.31,-33.692 12.94,-48.563 8.63,-14.863 20.37,-26.594 35.25,-35.234 14.86,-8.633 31.16,-12.942 48.91,-12.942 13.18,0 26.13,2.688 38.85,8.086 12.71,5.403 23.97,12.774 33.8,22.121 l 20.87,-22.656 c -12.72,-12.48 -27.47,-22.246 -44.24,-29.316 -16.79,-7.071 -33.81,-10.606 -51.07,-10.606 -23.99,0 -45.92,5.684 -65.83,17.071 -19.9,11.386 -35.6,26.914 -47.11,46.582 -11.51,19.668 -17.26,41.367 -17.26,65.097 0,23.504 5.81,45.02 17.45,64.571 11.61,19.531 27.51,34.929 47.64,46.21 20.15,11.258 42.32,16.903 66.54,16.903 17.51,0 34.47,-3.297 50.89,-9.903 16.42,-6.589 30.63,-15.878 42.63,-27.859 l -20.51,-24.816 c -9.6,10.07 -20.74,17.922 -33.44,23.554"
         style="fill:#231f20;fill-opacity:1;fill-rule:nonzero;stroke:none"
         id="path52" /><path
         d="m 1693.55,313.125 c 12.7,-13.078 19.06,-31.113 19.06,-54.141 V 141.379 h -33.45 V 250 c 0,16.063 -4.49,28.594 -13.48,37.578 -9,8.992 -21.4,13.496 -37.23,13.496 -18.46,-0.254 -33.09,-6.484 -43.88,-18.703 -10.79,-12.234 -16.19,-28.066 -16.19,-47.48 v -93.512 h -33.44 v 266.875 h 33.44 V 290.645 c 12.72,27.558 36.93,41.582 72.66,42.078 22.29,0 39.79,-6.532 52.51,-19.598"
         style="fill:#231f20;fill-opacity:1;fill-rule:nonzero;stroke:none"
         id="path54" /><path
         d="m 1772.31,331.641 h 33.45 V 141.379 h -33.45 z m 31.46,69.785 c 3.96,-4.102 5.94,-9.238 5.94,-15.469 0,-6.25 -1.98,-11.398 -5.94,-15.469 -3.95,-4.093 -8.93,-6.113 -14.92,-6.113 -5.99,0 -10.97,2.02 -14.92,6.113 -3.95,4.071 -5.94,9.219 -5.94,15.469 0,6.231 1.99,11.367 5.94,15.469 3.95,4.062 8.93,6.101 14.92,6.101 5.99,0 10.97,-2.039 14.92,-6.101"
         style="fill:#231f20;fill-opacity:1;fill-rule:nonzero;stroke:none"
         id="path56" /><path
         d="m 1930.91,321.746 c 11.52,7.07 25.17,10.734 41,10.977 v -32.371 c -19.41,0.722 -35.12,-4.317 -47.11,-15.11 -11.99,-10.789 -18.82,-25.301 -20.5,-43.523 v -100.34 h -33.45 v 190.262 h 33.45 v -40.996 c 6.23,13.652 15.1,24.023 26.61,31.101"
         style="fill:#231f20;fill-opacity:1;fill-rule:nonzero;stroke:none"
         id="path58" /><path
         d="M 2176.56,331.641 V 141.379 h -33.81 v 40.281 c -12.46,-27.101 -35.97,-40.879 -70.5,-41.359 -22.06,0 -39.31,6.535 -51.79,19.601 -12.46,13.067 -18.7,31.106 -18.7,54.129 v 117.61 h 33.81 V 223.027 c 0,-16.074 4.37,-28.605 13.13,-37.578 8.75,-9.004 20.8,-13.496 36.15,-13.496 17.74,0.235 31.82,6.531 42.25,18.887 10.43,12.344 15.65,28.105 15.65,47.285 v 93.516 h 33.81"
         style="fill:#231f20;fill-opacity:1;fill-rule:nonzero;stroke:none"
         id="path60" /><path
         d="m 2301.71,321.746 c 11.52,7.07 25.18,10.734 41,10.977 v -32.371 c -19.41,0.722 -35.12,-4.317 -47.11,-15.11 -11.99,-10.789 -18.82,-25.301 -20.5,-43.523 v -100.34 h -33.44 v 190.262 h 33.44 v -40.996 c 6.23,13.652 15.11,24.023 26.61,31.101"
         style="fill:#231f20;fill-opacity:1;fill-rule:nonzero;stroke:none"
         id="path62" /><path
         d="m 2484.42,185.254 c 9.11,5.508 16.24,13.125 21.4,22.84 5.15,9.719 7.73,20.676 7.73,32.902 0,12.481 -2.58,23.574 -7.73,33.281 -5.16,9.707 -12.29,17.313 -21.4,22.832 -9.11,5.52 -19.54,8.274 -31.29,8.274 -11.75,0 -22.24,-2.754 -31.47,-8.274 -9.22,-5.519 -16.49,-13.125 -21.75,-22.832 -5.29,-9.707 -7.92,-20.8 -7.92,-33.281 0.24,-18.691 5.99,-34.043 17.26,-46.035 11.27,-11.973 25.89,-17.969 43.88,-17.969 11.75,0 22.18,2.754 31.29,8.262 z m 62.94,146.387 v -170.84 c 0,-18.223 -4.03,-34.16 -12.05,-47.832 -8.04,-13.6643 -19.37,-24.1526 -33.99,-31.4768 -14.63,-7.293 -31.66,-10.9649 -51.07,-10.9649 -28.06,0 -54.19,8.8672 -78.41,26.6211 l 14.76,24.4536 c 9.34,-7.676 19.05,-13.36 29.13,-17.09 10.07,-3.711 21.09,-5.5667 33.07,-5.5667 19.67,0 35.37,5.5077 47.12,16.5427 11.75,11.024 17.63,25.782 17.63,44.239 v 26.601 c -6.72,-11.504 -15.82,-20.43 -27.33,-26.777 -11.52,-6.367 -24.7,-9.543 -39.56,-9.543 -17.03,0 -32.08,3.898 -45.14,11.691 -13.07,7.793 -23.19,18.641 -30.39,32.559 -7.2,13.906 -10.79,29.844 -10.79,47.82 0,17.746 3.59,33.449 10.79,47.121 7.2,13.672 17.32,24.336 30.39,32.012 13.06,7.676 28.11,11.512 45.14,11.512 15.09,0 28.34,-3.114 39.74,-9.356 11.39,-6.23 20.43,-15.105 27.15,-26.621 v 34.895 h 33.81"
         style="fill:#231f20;fill-opacity:1;fill-rule:nonzero;stroke:none"
         id="path64" /><path
         d="m 2885.07,393.145 h 34.17 V 141.379 h -34.89 l -143.87,194.93 v -194.93 h -34.52 v 251.766 h 34.89 l 144.22,-195.293 v 195.293"
         style="fill:#231f20;fill-opacity:1;fill-rule:nonzero;stroke:none"
         id="path66" /><path
         d="m 3084.51,178.965 c 10.91,7.547 17.44,17.558 19.61,30.027 v 19.055 h -55.77 c -15.09,0 -26.3,-2.277 -33.62,-6.828 -7.31,-4.539 -10.97,-11.746 -10.97,-21.571 0,-9.835 3.72,-17.617 11.16,-23.378 7.42,-5.754 17.38,-8.633 29.84,-8.633 15.59,0 28.83,3.769 39.75,11.328 z m 19.96,-37.586 v 26.629 c -14.16,-18.723 -36.33,-28.067 -66.55,-28.067 -13.18,0 -24.75,2.52 -34.7,7.559 -9.95,5.039 -17.62,11.98 -23.01,20.859 -5.4,8.868 -8.1,18.809 -8.1,29.856 0,17.019 6.3,30.515 18.88,40.457 12.59,9.941 30.16,15.039 52.7,15.273 h 60.43 v 8.993 c 0,13.429 -4.14,23.8 -12.42,31.125 -8.28,7.304 -20.32,10.957 -36.15,10.957 -19.19,0 -38.72,-6.829 -58.62,-20.5 l -14.02,23.019 c 13.65,8.879 26.3,15.293 37.94,19.246 11.63,3.957 25.47,5.938 41.55,5.938 23.73,0 42.07,-5.828 55.02,-17.442 12.95,-11.64 19.55,-27.879 19.77,-48.738 l 0.36,-125.164 h -33.08"
         style="fill:#231f20;fill-opacity:1;fill-rule:nonzero;stroke:none"
         id="path68" /><path
         d="m 3276.39,302.871 c -12.47,0 -23.56,-2.754 -33.27,-8.281 -9.73,-5.527 -17.32,-13.301 -22.84,-23.379 -5.52,-10.059 -8.27,-21.699 -8.27,-34.883 0,-13.183 2.69,-24.824 8.08,-34.883 5.39,-10.066 12.83,-17.929 22.31,-23.554 9.47,-5.633 20.32,-8.469 32.55,-8.469 12.23,0 23.25,2.043 33.09,6.125 9.83,4.082 17.98,9.949 24.45,17.617 l 19.06,-19.414 c -8.63,-10.789 -19.6,-19.062 -32.9,-24.816 -13.31,-5.77 -28.36,-8.633 -45.14,-8.633 -18.48,0 -34.88,4.074 -49.28,12.238 -14.38,8.145 -25.59,19.465 -33.62,33.973 -8.04,14.511 -12.05,31.117 -12.05,49.816 0,18.699 4.01,35.371 12.05,50 8.03,14.617 19.24,25.996 33.62,34.16 14.4,8.153 30.8,12.235 49.28,12.235 16.06,0 30.51,-2.469 43.34,-7.371 12.81,-4.922 23.55,-12.051 32.19,-21.407 l -18.35,-23.019 c -15.1,14.629 -33.21,21.945 -54.3,21.945"
         style="fill:#231f20;fill-opacity:1;fill-rule:nonzero;stroke:none"
         id="path70" /><path
         d="m 3387.51,331.641 152.86,-0.364 v -23.738 l -115.09,-138.457 117.97,-0.371 v -27.688 l -158.98,0.356 v 23.738 l 114.74,138.477 -111.5,0.351 v 27.696"
         style="fill:#231f20;fill-opacity:1;fill-rule:nonzero;stroke:none"
         id="path72" /><path
         d="m 3632.97,81.3164 c -9.95,-7.4297 -21.64,-11.1406 -35.06,-11.1406 -8.16,0 -15.59,1.1914 -22.31,3.5937 -6.71,2.4024 -13.18,6.1133 -19.41,11.1407 l 14.38,26.2498 c 8.39,-5.984 16.91,-8.984 25.54,-8.984 14.39,0 25.17,8.156 32.36,24.465 l 7.2,16.894 -78.76,188.106 h 35.24 l 60.42,-152.493 57.19,152.493 h 34.17 l -87.04,-217.239 c -6,-14.6286 -13.97,-25.652 -23.92,-33.0856"
         style="fill:#231f20;fill-opacity:1;fill-rule:nonzero;stroke:none"
         id="path74" /><path
         d="m 3935.99,313.125 c 12.7,-13.078 19.06,-31.113 19.06,-54.141 V 141.379 H 3921.6 V 250 c 0,16.063 -4.51,28.594 -13.48,37.578 -9,8.992 -21.41,13.496 -37.24,13.496 -17.02,-0.254 -30.87,-5.703 -41.53,-16.367 -10.67,-10.684 -16.74,-24.523 -18.16,-41.543 V 141.379 h -33.45 v 190.262 h 33.45 v -40.293 c 12.69,27.097 36.79,40.879 72.28,41.375 22.31,0 39.81,-6.532 52.52,-19.598"
         style="fill:#231f20;fill-opacity:1;fill-rule:nonzero;stroke:none"
         id="path76" /><path
         d="m 4014.75,331.641 h 33.45 V 141.379 h -33.45 z m 31.47,69.785 c 3.95,-4.102 5.92,-9.238 5.92,-15.469 0,-6.25 -1.97,-11.398 -5.92,-15.469 -3.96,-4.093 -8.94,-6.113 -14.94,-6.113 -5.98,0 -10.95,2.02 -14.92,6.113 -3.95,4.071 -5.94,9.219 -5.94,15.469 0,6.231 1.99,11.367 5.94,15.469 3.97,4.062 8.94,6.101 14.92,6.101 6,0 10.98,-2.039 14.94,-6.101"
         style="fill:#231f20;fill-opacity:1;fill-rule:nonzero;stroke:none"
         id="path78" /><path
         d="m 4159.15,294.961 c -9.72,-5.762 -17.28,-13.731 -22.67,-23.926 -5.39,-10.195 -8.09,-21.758 -8.09,-34.707 0,-13.183 2.7,-24.933 8.09,-35.254 5.39,-10.312 12.95,-18.281 22.67,-23.906 9.7,-5.637 20.8,-8.457 33.27,-8.457 12.22,0 23.19,2.82 32.91,8.457 9.7,5.625 17.25,13.594 22.65,23.906 5.39,10.321 8.09,22.071 8.09,35.254 0,12.949 -2.7,24.512 -8.09,34.707 -5.4,10.195 -12.95,18.164 -22.65,23.926 -9.72,5.742 -20.69,8.633 -32.91,8.633 -12.47,0 -23.57,-2.891 -33.27,-8.633 z m 83.79,25.527 c 14.75,-8.164 26.25,-19.492 34.54,-33.984 8.27,-14.512 12.4,-31.113 12.4,-49.824 0,-18.692 -4.13,-35.352 -12.4,-49.981 -8.29,-14.629 -19.79,-26.015 -34.54,-34.16 -14.74,-8.164 -31.59,-12.238 -50.52,-12.238 -19.19,0 -36.16,4.074 -50.9,12.238 -14.75,8.145 -26.25,19.465 -34.52,33.973 -8.27,14.511 -12.42,31.23 -12.42,50.168 0,18.711 4.15,35.312 12.42,49.824 8.27,14.492 19.77,25.82 34.52,33.984 14.74,8.153 31.71,12.235 50.9,12.235 18.93,0 35.78,-4.082 50.52,-12.235"
         style="fill:#231f20;fill-opacity:1;fill-rule:nonzero;stroke:none"
         id="path80" /><path
         d="m 4298.51,331.641 h 34.88 l 53.23,-157.176 52.51,157.176 h 34.89 l 52.86,-157.176 52.51,157.176 h 34.53 l -70.13,-190.262 h -34.89 l -52.5,149.617 -52.52,-149.617 H 4369 l -70.49,190.262"
         style="fill:#231f20;fill-opacity:1;fill-rule:nonzero;stroke:none"
         id="path82" /><path
         d="m 4687.84,81.3164 c -9.95,-7.4297 -21.64,-11.1406 -35.07,-11.1406 -8.16,0 -15.59,1.1914 -22.31,3.5937 -6.71,2.4024 -13.18,6.1133 -19.41,11.1407 l 14.37,26.2498 c 8.4,-5.984 16.92,-8.984 25.55,-8.984 14.39,0 25.18,8.156 32.36,24.465 l 7.19,16.894 -78.76,188.106 h 35.25 l 60.43,-152.493 57.18,152.493 h 34.17 l -87.04,-217.239 c -5.99,-14.6286 -13.96,-25.652 -23.91,-33.0856"
         style="fill:#231f20;fill-opacity:1;fill-rule:nonzero;stroke:none"
         id="path84" /><path
         d="M 0,72.2852 206.902,20.0977 c 0,0 10.532,368.7893 501.703,526.9453 299.235,96.344 692.445,175.828 692.445,175.828 L 1335.48,777.742 814.039,668.77 c 0,0 -94.519,25.203 246.251,164.199 0,0 -65.134,39.043 -114.27,16.679 C 759.566,764.785 729.59,732.598 732.211,658.184 L 417.48,567.91 c 0,0 -42.222,77.567 -89.316,143.75 0,0 51.266,108.965 -7.512,150.332 -22.461,15.801 15.207,-42.207 -21.371,-107.754 0,0 -55.922,70.926 -103.949,99.727 L 80.4688,819.98 c 0,0 308.3592,-202.238 126.4332,-445.957 C 95.4336,224.676 0,72.2852 0,72.2852"
         style="fill:#1d3359;fill-opacity:1;fill-rule:nonzero;stroke:none"
         id="path86" /><path
         d="m 209.18,594.98 c -10.16,30.829 -26.664,59.168 -45.219,83.965 C 124.973,612.176 102.59,534.57 102.59,451.824 c 0,-42.312 5.863,-83.289 16.789,-122.156 16.672,23.379 34.039,47.266 51.777,71.035 3.996,5.352 7.66,10.692 11.164,16.035 -1.086,11.551 -1.66,23.25 -1.66,35.086 0,50.696 10.16,99.043 28.52,143.156"
         style="fill:#1d3359;fill-opacity:1;fill-rule:nonzero;stroke:none"
         id="path88" /><path
         d="m 393.051,788.926 c 48.879,23.484 103.609,36.66 161.363,36.66 65.199,0 126.543,-16.797 179.961,-46.27 17.348,16.602 40.074,32.559 69.137,49.278 -71.461,47.402 -157.106,75.058 -249.098,75.058 -63.363,0 -123.711,-13.136 -178.496,-36.789 13.988,-23.172 18.359,-50.672 17.133,-77.937"
         style="fill:#1d3359;fill-opacity:1;fill-rule:nonzero;stroke:none"
         id="path90" /><path
         d="m 912.02,560.555 c 10.492,-34.422 16.156,-70.926 16.156,-108.731 0,-206.094 -167.668,-373.7576 -373.762,-373.7576 -98.285,0 -187.816,38.1526 -254.609,100.4106 -14.157,-27.852 -24.18,-53.762 -31.27,-76.262 C 346.469,38.3594 446.047,0 554.414,0 c 249.141,0 451.826,202.684 451.826,451.824 0,44.758 -6.572,88 -18.752,128.86 -24.968,-6.504 -50.203,-13.223 -75.468,-20.129"
         style="fill:#1d3359;fill-opacity:1;fill-rule:nonzero;stroke:none"
         id="path92" /></g></g></svg>
