<svg id="Capa_1" enable-background="new 0 0 512 512" height="512" viewBox="0 0 512 512" width="512" xmlns="http://www.w3.org/2000/svg"><g><path fill="#778a9d" d="m181.676 264.168h60v30h-60z" transform="matrix(.707 -.707 .707 .707 -135.403 231.444)"/><path fill="#778a9d" d="m372.933 90.571c15.063.014 27.326 12.279 27.34 27.342l30-.026c-.027-31.576-25.738-57.288-57.313-57.316z"/><path fill="#778a9d" d="m460.844 118h30c0-64.822-53.189-118-118-118v30c48.524 0 88 39.477 88 88z"/><path fill="#778a9d" d="m24.696 484.221c7.097 17.134 23.028 27.779 41.575 27.779h422.573v-30h-422.573c-9.3 0-12.959-7.087-13.858-9.26s-3.324-9.771 3.251-16.347l16.186-16.186c28.823 19.138 68.505 16.35 94.4-9.548l109.066-109.066c7.752-7.751 24.266-7.011 41.755-6.228 22.125.991 47.211 2.115 64.312-14.985l71.921-71.921-6.025-10.043c-42.899-71.493-103.361-131.955-174.852-174.849l-10.043-6.025-71.921 71.92c-16.717 16.709-16.032 40.931-14.985 64.312.784 17.486 1.524 34.002-6.228 41.755l-109.066 109.065c-25.869 25.868-28.707 65.548-9.548 94.401l-16.185 16.185c-13.115 13.114-16.853 31.906-9.755 49.041zm242.234-408.799c59.665 37.828 110.662 88.825 148.492 148.492l-21.791 21.791c-35.942-58.681-86.455-110.495-148.492-148.492zm-185.533 270.385 109.066-109.066c17.101-17.101 15.977-42.182 14.985-64.311-.558-12.444-2.168-33.36 6.228-41.756l11.602-11.602c61.384 36.101 112.391 87.108 148.493 148.492l-11.602 11.602c-7.753 7.752-24.267 7.012-41.756 6.229-22.129-.991-47.21-2.116-64.311 14.985l-109.065 109.067c-17.584 17.585-46.05 17.589-63.64 0-17.588-17.588-17.588-46.051 0-63.64z"/></g></svg>