<svg id="Capa_1" enable-background="new 0 0 512 512" height="512" viewBox="0 0 512 512" width="512" xmlns="http://www.w3.org/2000/svg"><g><path d="m192 32 16 32-16 32h-192v-64z" fill="#fffa50"/><path d="m448 64v128c0 17.6-14.4 32-32 32s-32-14.4-32-32v-32c0-17.6-14.4-32-32-32s-32 14.4-32 32v96l-32 32-32-32v-96c0-17.6-14.4-32-32-32s-32-14.4-32-32l32-64h192c17.6 0 32 14.4 32 32z" fill="#ffce33"/><path d="m512 256v128c0 35.199-28.48 64-64 64v32h-256v-32c-35.199 0-64-28.801-64-64v-128h128l32 32 32-32z" fill="#fffa50"/><g fill="#ffa65c"><path d="m192 32h32v64h-32z"/><path d="m320 256v64c0 17.6-14.4 32-32 32s-32-14.4-32-32v-64z"/></g></g></svg>